<?xml version="1.0" standalone="no"?>
<!DOCTYPE svg PUBLIC "-//W3C//DTD SVG 20010904//EN"
 "http://www.w3.org/TR/2001/REC-SVG-20010904/DTD/svg10.dtd">
<svg version="1.0" xmlns="http://www.w3.org/2000/svg"
 width="1280.000000pt" height="620.000000pt" viewBox="0 0 1280.000000 620.000000"
 preserveAspectRatio="xMidYMid meet">
<g transform="translate(0.000000,620.000000) scale(0.100000,-0.100000)"
fill="#000000" stroke="none">
<path d="M3915 6192 c-6 -4 -32 -14 -60 -21 -219 -55 -375 -240 -400 -472 -17
-163 70 -360 204 -463 28 -21 51 -46 51 -55 0 -36 -169 -812 -179 -825 -6 -7
-34 -16 -61 -20 -80 -11 -218 -86 -289 -158 -104 -105 -171 -274 -171 -428 l0
-49 -72 -22 c-71 -22 -720 -235 -989 -324 -74 -25 -142 -43 -150 -39 -8 3 -32
29 -54 57 -58 74 -149 139 -245 176 -73 28 -93 31 -190 31 -126 0 -202 -19
-294 -75 -32 -19 -63 -35 -68 -35 -6 0 -7 26 -3 68 9 96 -7 171 -65 290 -61
126 -127 198 -227 245 -65 31 -73 32 -193 32 -123 0 -126 -1 -195 -35 -117
-58 -194 -151 -230 -275 -9 -33 -21 -68 -26 -77 -12 -23 -12 -73 0 -96 5 -9
17 -44 26 -77 20 -69 83 -193 124 -242 47 -57 125 -108 199 -132 57 -19 88
-22 164 -19 79 2 103 8 159 35 74 35 96 30 76 -16 -6 -14 -11 -81 -11 -151 0
-112 3 -132 27 -194 55 -140 158 -250 287 -308 36 -16 76 -35 90 -41 l25 -13
-3 -164 c-5 -314 -15 -598 -21 -607 -3 -5 -39 -25 -78 -43 -88 -40 -166 -117
-213 -211 -29 -56 -34 -76 -38 -164 -3 -84 -1 -110 18 -164 56 -167 187 -275
371 -305 20 -4 69 -2 110 4 364 51 515 474 268 745 -34 36 -73 65 -117 87 -37
18 -70 37 -75 43 -10 14 3 746 14 767 5 10 28 22 52 29 78 21 180 82 243 146
99 102 151 219 162 370 5 61 11 88 22 94 22 12 1171 389 1186 389 7 0 34 -27
59 -60 58 -76 128 -129 230 -176 73 -33 90 -37 190 -41 129 -6 197 7 304 62
39 19 74 35 79 35 5 0 83 -66 173 -146 90 -81 300 -268 465 -415 166 -148 304
-275 307 -283 3 -8 -5 -41 -19 -74 -46 -114 -54 -207 -29 -327 32 -150 134
-295 260 -366 30 -17 57 -34 60 -39 3 -4 -33 -26 -80 -48 -109 -53 -175 -114
-220 -206 -73 -147 -69 -269 13 -436 52 -107 135 -199 212 -237 57 -28 153
-53 201 -53 171 0 341 104 408 248 74 162 64 287 -39 472 -46 83 -84 127 -148
172 -50 34 -45 52 16 61 20 4 75 25 121 47 133 65 225 168 281 317 26 68 37
225 22 292 -6 24 -8 49 -6 55 2 6 26 22 52 36 45 25 565 309 890 486 84 46
154 84 156 84 2 0 25 -20 52 -45 65 -60 190 -122 287 -141 140 -29 315 6 433
85 25 17 54 31 64 31 10 0 167 -89 347 -198 180 -110 364 -220 408 -247 115
-68 113 -65 108 -182 -12 -260 118 -467 357 -564 43 -18 81 -38 84 -44 6 -16
-12 -707 -19 -726 -3 -8 -36 -28 -73 -44 -76 -33 -160 -106 -199 -173 -145
-246 -29 -568 234 -652 38 -11 76 -25 85 -31 22 -11 105 -12 112 0 3 4 24 11
46 15 58 9 172 69 216 112 176 177 178 468 5 641 -24 24 -75 60 -113 79 -38
19 -71 40 -74 47 -2 7 -1 170 3 363 6 254 11 355 20 366 7 8 32 20 55 27 128
38 251 133 321 247 64 106 81 165 81 289 1 61 -2 125 -6 142 -6 26 -3 37 13
52 17 16 378 217 694 386 33 18 131 71 218 119 87 47 162 86 168 86 6 0 34
-20 62 -46 66 -57 175 -110 269 -130 169 -36 371 23 497 143 24 24 47 43 51
43 3 0 11 -39 17 -87 14 -99 77 -244 140 -321 80 -97 203 -152 343 -152 210 0
378 127 430 325 7 28 17 54 21 60 12 12 12 98 0 110 -4 6 -14 32 -20 58 -6 27
-32 89 -56 137 -57 114 -123 181 -225 229 -73 35 -78 36 -195 36 -115 -1 -122
-2 -183 -33 -34 -18 -80 -48 -101 -67 -21 -19 -41 -35 -45 -35 -3 0 -6 44 -6
98 0 53 -7 122 -15 152 -33 125 -111 238 -216 315 -56 42 -173 90 -242 100
-26 4 -51 13 -56 19 -13 15 -131 743 -124 761 2 7 18 19 35 26 41 17 127 103
161 161 68 117 76 291 19 412 -44 93 -118 169 -212 214 -65 31 -87 37 -163 40
-110 6 -194 -15 -275 -67 -210 -137 -264 -416 -121 -630 61 -91 167 -159 291
-185 18 -4 30 -15 33 -29 13 -52 122 -743 118 -749 -2 -4 -35 -24 -73 -44
-125 -65 -234 -207 -267 -348 -16 -68 -19 -214 -4 -262 5 -17 6 -36 2 -41 -5
-8 -375 -212 -937 -517 -77 -42 -149 -76 -158 -76 -10 0 -39 18 -64 41 -126
110 -277 156 -457 138 -103 -10 -140 -23 -246 -85 l-76 -44 -329 198 c-181
110 -375 227 -432 261 l-102 63 6 91 c17 263 -121 490 -357 587 -40 17 -77 36
-81 43 -12 19 3 667 17 707 10 28 24 40 84 71 114 58 175 125 221 244 33 85
33 225 0 310 -45 117 -116 194 -230 249 -62 29 -71 31 -185 31 -118 0 -121 -1
-197 -37 -97 -46 -160 -109 -205 -205 -38 -78 -53 -178 -42 -269 16 -127 123
-270 245 -325 34 -15 64 -35 67 -43 9 -23 -13 -719 -23 -732 -6 -6 -29 -16
-52 -23 -65 -19 -173 -79 -223 -123 -135 -119 -210 -327 -184 -514 7 -51 8
-88 3 -93 -5 -5 -155 -88 -334 -186 -418 -228 -642 -350 -706 -386 l-51 -29
-39 36 c-69 63 -126 97 -208 126 -147 51 -338 36 -465 -37 -23 -14 -50 -25
-58 -25 -16 0 -65 42 -444 380 -489 437 -504 451 -503 474 1 11 14 52 29 91
65 170 33 381 -81 537 -20 27 -68 74 -105 105 -41 33 -69 63 -69 74 0 10 25
137 56 281 31 145 67 316 80 382 13 65 30 129 38 141 10 15 36 29 73 40 129
37 248 126 309 231 130 221 100 479 -75 655 -69 69 -128 105 -221 133 -30 9
-63 21 -72 27 -21 11 -140 12 -153 1z m-23 -1063 c4 -13 -148 -748 -160 -768
-11 -19 -26 -15 -30 8 -3 15 139 715 153 759 5 15 32 16 37 1z m4515 -2349
c219 -132 399 -246 401 -254 2 -8 -1 -17 -7 -20 -5 -3 -191 103 -413 237 -367
222 -446 277 -394 277 8 0 194 -108 413 -240z"/>
</g>
</svg>
